:SAMPLES-PER-SECOND 30
:FULLY-SPECIFIED
:DEGREES
327
root  42.9588 35.2204 -30.6438 -118.301 83.2492 -155.589
RightUpLeg  -76.4387 -12.1079 12.3748
RightLeg  42.5329 1.23662 0.912945
RightFoot  -0.917266 0.392909 -4.3631
RightToes  0.000482159 0.542163 -0.142577
Spine  75.915 -3.85914 9.48845
Spine1  -0.491568 4.49741 -4.78261
HEad  -39.8046 -8.28021 2.54197
LeftShoulder1  5.54041 -31.6773 -8.02713
LeftArm  -80.5513 -54.9007 34.1654
LeftForeArm  -3.85161 -5.97202 3.79384
LeftHand  -0.25398 0.0180481 5.50724
RightShoulder  2.42643 14.6712 5.59623
RightArm  -67.79 54.4354 -26.5157
RightForeArm  -31.7727 2.66189 3.25608
RightHand  -1.2937 11.4309 -9.43188
LeftUpLeg  -79.6435 17.714 -19.9562
LeftLeg  45.4514 -1.14404 -0.828489
LeftFoot  -6.05627 -0.425089 9.98359
LeftToes  1.06247e-005 4.65855e-005 -8.18501e-006
328
root  43.4011 35.1448 -30.5369 -118.284 83.0942 -157.336
RightUpLeg  -78.1147 -11.7621 12.7417
RightLeg  43.5193 0.867882 0.572272
RightFoot  -1.81403 0.346036 -4.29392
RightToes  0.000482159 0.542163 -0.142577
Spine  76.6235 -3.70986 8.85097
Spine1  -0.504472 4.18823 -4.93212
HEad  -41.059 -6.97712 3.33851
LeftShoulder1  4.68465 -30.3583 -5.93457
LeftArm  -81.8836 -54.0165 36.2467
LeftForeArm  -3.91317 -7.72265 3.57055
LeftHand  -0.25398 0.0180481 5.50724
RightShoulder  2.23629 14.1333 4.84233
RightArm  -70.0352 53.5056 -24.3433
RightForeArm  -33.6042 7.62464 3.04816
RightHand  -1.44377 12.0171 -10.1223
LeftUpLeg  -81.2341 17.151 -19.9471
LeftLeg  46.3302 -0.973942 -0.670949
LeftFoot  -6.27862 -0.386786 9.58404
LeftToes  1.06247e-005 4.65855e-005 -8.18501e-006
329
root  43.7886 35.0815 -30.4616 -118.327 82.8413 -158.615
RightUpLeg  -79.1442 -11.2465 12.6605
RightLeg  44.485 0.160487 -0.149917
RightFoot  -2.52601 0.301377 -4.12787
RightToes  0.000482159 0.542163 -0.142577
Spine  76.9389 -3.75661 8.46818
Spine1  0.221376 3.83679 -4.9742
HEad  -42.0056 -6.06497 3.51314
LeftShoulder1  4.13692 -28.5236 -4.94615
LeftArm  -85.2608 -53.9296 37.1886
LeftForeArm  -4.04771 -11.1269 3.15983
LeftHand  -0.25398 0.0180481 5.50724
RightShoulder  2.23146 13.7659 5.11482
RightArm  -72.8724 52.4695 -22.9457
RightForeArm  -33.5172 13.7917 3.64601
RightHand  -1.25743 11.5974 -9.08139
LeftUpLeg  -82.4892 16.9945 -20.2345
LeftLeg  47.1816 -0.991866 -0.719019
LeftFoot  -6.53188 -0.364114 9.5874
LeftToes  1.06247e-005 4.65855e-005 -8.18501e-006
330
root  44.1099 35.0538 -30.4231 -117.972 82.4554 -158.913
RightUpLeg  -79.4413 -10.5937 12.2235
RightLeg  45.2038 -0.819155 -1.20612
RightFoot  -3.2918 0.256141 -3.95231
RightToes  0.000482159 0.542163 -0.142577
Spine  77.117 -3.97938 8.30067
Spine1  1.48844 3.54818 -4.88247
HEad  -42.5316 -5.70873 3.04783
LeftShoulder1  3.89064 -26.5322 -5.01711
LeftArm  -94.4954 -54.4149 37.1982
LeftForeArm  -0.865587 -15.5298 1.80515
LeftHand  -0.25398 0.0180481 5.50724
RightShoulder  2.23833 13.2697 5.59315
RightArm  -76.0697 51.967 -22.5438
RightForeArm  -31.8661 19.2642 5.08418
RightHand  -1.00039 11.1574 -7.52639
LeftUpLeg  -83.1347 17.1506 -20.5128
LeftLeg  47.7248 -1.08838 -0.85059
LeftFoot  -6.91434 -0.334866 9.71728
LeftToes  1.06247e-005 4.65855e-005 -8.18501e-006
331
root  44.3668 35.0737 -30.4007 -117.511 82.1422 -158.746
RightUpLeg  -79.2579 -9.91512 11.5934
RightLeg  45.4926 -1.67828 -2.15299
RightFoot  -3.86741 0.209155 -3.59998
RightToes  0.000482159 0.542163 -0.142577
Spine  77.2505 -4.13945 8.10764
Spine1  2.77559 3.28224 -4.72995
HEad  -42.7692 -5.37666 2.81384
LeftShoulder1  3.91186 -25.0877 -5.84551
LeftArm  -106.79 -54.8589 37.0384
LeftForeArm  6.39931 -19.5522 -1.09374
LeftHand  -0.25398 0.0180481 5.50724
RightShoulder  2.1918 12.6129 5.88275
RightArm  -77.774 52.0228 -22.4021
RightForeArm  -30.9395 23.366 6.34782
RightHand  -0.855044 11.1053 -6.53137
LeftUpLeg  -83.3047 17.3459 -20.5512
LeftLeg  47.9864 -1.08331 -0.854382
LeftFoot  -7.12493 -0.310965 9.59131
LeftToes  1.06247e-005 4.65855e-005 -8.18501e-006
332
root  44.5538 35.1231 -30.3781 -117.403 82.0702 -158.845
RightUpLeg  -79.0053 -9.40283 11.0165
RightLeg  45.5198 -2.24065 -2.76801
RightFoot  -4.09867 0.170319 -3.12898
RightToes  0.000482159 0.542163 -0.142577
Spine  77.2915 -4.17132 7.77743
Spine1  3.57368 2.97498 -4.77272
HEad  -42.9258 -4.81863 3.22142
LeftShoulder1  4.04142 -24.3492 -6.77813
LeftArm  -113.747 -55.0204 37.3423
LeftForeArm  11.6108 -21.9309 -3.39904
LeftHand  -0.25398 0.0180481 5.50724
RightShoulder  2.15179 12.0647 6.13515
RightArm  -78.0167 52.1156 -21.7946
RightForeArm  -30.4979 26.4402 7.07493
RightHand  -0.711684 10.762 -5.62344
LeftUpLeg  -83.3073 17.3304 -20.3676
LeftLeg  48.1204 -0.826878 -0.553064
LeftFoot  -7.0652 -0.299333 9.14082
LeftToes  1.06247e-005 4.65855e-005 -8.18501e-006
333
root  44.6649 35.1756 -30.3645 -117.118 82.1744 -158.795
RightUpLeg  -78.9333 -9.12713 10.7814
RightLeg  45.4393 -2.56745 -3.11493
RightFoot  -4.0733 0.158609 -2.93065
RightToes  0.000482159 0.542163 -0.142577
Spine  77.1816 -4.1939 7.47796
Spine1  3.81695 2.74188 -5.151
HEad  -43.1353 -4.40474 3.68745
LeftShoulder1  4.10365 -23.8544 -7.33133
LeftArm  -114.165 -55.1024 37.8735
LeftForeArm  11.9729 -22.7753 -4.04765
LeftHand  -0.25398 0.0180481 5.50724
RightShoulder  2.17844 11.8176 6.58196
RightArm  -77.7495 51.8659 -20.9143
RightForeArm  -29.404 28.7205 7.59882
RightHand  -0.424908 9.64844 -3.76392
LeftUpLeg  -83.3342 17.1429 -20.1026
LeftLeg  48.1253 -0.377149 -0.0156401
LeftFoot  -6.85612 -0.297529 8.63731
LeftToes  1.06247e-005 4.65855e-005 -8.18501e-006
334
root  44.711 35.2239 -30.3722 -116.219 82.2984 -158.07
RightUpLeg  -78.9809 -9.06672 10.9926
RightLeg  45.1913 -2.63336 -3.15989
RightFoot  -3.75266 0.19464 -3.31124
RightToes  0.000482159 0.542163 -0.142577
Spine  76.9284 -4.25651 7.38094
Spine1  3.88428 2.70456 -5.62992
HEad  -43.4378 -4.34536 3.62367
LeftShoulder1  4.08587 -23.3409 -7.58429
LeftArm  -112.203 -55.3471 37.7864
LeftForeArm  9.60678 -23.1898 -4.37574
LeftHand  -0.25398 0.0180481 5.50724
RightShoulder  2.26909 11.8227 7.24049
RightArm  -77.4148 51.3042 -20.429
RightForeArm  -28.0714 30.3394 7.96941
RightHand  -0.0689191 8.38299 -1.06745
LeftUpLeg  -83.3512 16.9903 -19.8772
LeftLeg  47.9594 0.0248717 0.464219
LeftFoot  -6.55778 -0.309214 8.33433
LeftToes  1.06247e-005 4.65855e-005 -8.18501e-006
335
root  44.709 35.2858 -30.3948 -115.556 82.379 -157.33
RightUpLeg  -78.8463 -9.27014 11.4712
RightLeg  44.7322 -2.415 -2.88035
RightFoot  -3.15679 0.268015 -4.03959
RightToes  0.000482159 0.542163 -0.142577
Spine  76.6153 -4.33001 7.40397
Spine1  4.1749 2.74356 -5.90277
HEad  -43.8069 -4.33664 3.16833
LeftShoulder1  4.10998 -22.998 -7.90896
LeftArm  -110.233 -55.5999 37.1149
LeftForeArm  7.04089 -24.1404 -4.8051
LeftHand  -0.25398 0.0180481 5.50724
RightShoulder  2.38651 11.9842 7.91722
RightArm  -77.3246 50.6164 -20.3618
RightForeArm  -26.8753 31.7079 8.29137
RightHand  0.196118 7.77896 1.23672
LeftUpLeg  -83.1144 16.9275 -19.6906
LeftLeg  47.6576 0.249082 0.72581
LeftFoot  -6.20221 -0.337003 8.32665
LeftToes  1.06247e-005 4.65855e-005 -8.18501e-006
336
root  44.6624 35.3871 -30.4123 -116.087 82.4229 -157.452
RightUpLeg  -78.2717 -9.76032 11.9821
RightLeg  44.0503 -2.11129 -2.5009
RightFoot  -2.59816 0.336786 -4.63218
RightToes  0.000482159 0.542163 -0.142577
Spine  76.3277 -4.39988 7.38041
Spine1  4.67633 2.68982 -5.96286
HEad  -44.0873 -4.20004 2.75217
LeftShoulder1  4.19535 -22.9317 -8.31262
LeftArm  -108.801 -55.6555 36.3312
LeftForeArm  6.13191 -25.4797 -5.14018
LeftHand  -0.25398 0.0180481 5.50724
RightShoulder  2.49355 12.2131 8.42764
RightArm  -77.1811 49.9254 -20.0986
RightForeArm  -25.6178 33.2858 8.6811
RightHand  0.306607 7.69341 2.23926
LeftUpLeg  -82.3987 16.8433 -19.4162
LeftLeg  47.1398 0.410096 0.902206
LeftFoot  -5.79614 -0.381833 8.58564
LeftToes  1.06247e-005 4.65855e-005 -8.18501e-006
337
root  44.5634 35.5434 -30.4093 -117.681 82.4219 -158.42
RightUpLeg  -77.2654 -10.3824 12.3987
RightLeg  42.9697 -1.89617 -2.19831
RightFoot  -2.17832 0.383567 -4.96436
RightToes  0.000482159 0.542163 -0.142577
Spine  76.018 -4.47662 7.28401
Spine1  5.07631 2.55225 -6.04949
HEad  -43.9929 -4.1014 2.5402
LeftShoulder1  4.21423 -22.8582 -8.44236
LeftArm  -107.799 -55.8549 35.241
LeftForeArm  6.50043 -26.6625 -5.38835
LeftHand  -0.25398 0.0180481 5.50724
RightShoulder  2.58303 12.4403 8.80163
RightArm  -76.3907 49.2416 -19.2741
RightForeArm  -24.6766 35.0017 9.14178
RightHand  0.279749 7.33328 2.08047
LeftUpLeg  -81.237 16.6832 -18.9987
LeftLeg  46.1409 0.60836 1.09936
LeftFoot  -5.12724 -0.446124 8.77271
LeftToes  1.06247e-005 4.65855e-005 -8.18501e-006
